<svg width="82" height="33" viewBox="0 0 82 33" fill="none" xmlns="http://www.w3.org/2000/svg">
<rect width="82" height="33" rx="16.5" fill="white"/>
<g clip-path="url(#clip0_8505_924)">
<g clip-path="url(#clip1_8505_924)">
<path d="M9.66973 16.3492L19.2518 26.0881L28.8335 16.3492L19.2518 6.61082L9.66973 16.3492ZM12.4758 20.5957L11.508 19.612L8.30121 16.3513L11.508 13.091L12.4758 12.1073V9.46437H15.0751L19.2498 5.21956L22.4562 8.48029L23.424 9.46396H26.0237V12.1069L26.9912 13.091L30.198 16.3513L26.9912 19.6116L26.0237 20.5957V23.239H23.424L22.4562 24.2231L19.2498 27.4834L16.043 24.2231L15.0751 23.239H12.4758V20.5957ZM19.2494 4.52414L15.3588 8.47947H11.508V12.3943L7.61694 16.3488L11.508 20.3046V24.219H15.3588L19.2498 28.1743L23.1404 24.219H26.9912V20.3041L30.8822 16.3488L26.9912 12.3935V8.47905H23.1404L19.2494 4.52414Z" fill="#00805F"/>
<path d="M8.29956 16.3476L12.4738 12.104V9.46148H15.0735L19.2477 5.21791L23.422 9.46148H26.0217V12.1044L30.1967 16.3472L26.0221 20.5907V23.2337H23.4224L19.2482 27.4772L15.0739 23.2337H12.4742V20.5907L8.29956 16.3476ZM12.4726 19.1982C14.089 17.2173 16.5257 15.9532 19.2449 15.9528C21.3436 15.9528 23.0551 14.213 23.0551 12.0792C23.0551 11.0716 22.6735 10.1515 22.0498 9.46107L19.2449 6.60917L16.4396 9.46148L12.473 13.4944L9.66809 16.3468L12.473 19.1987L12.4726 19.1982ZM26.0217 13.4969C24.4053 15.4779 21.9677 16.742 19.2477 16.742C17.1482 16.7424 15.4364 18.4826 15.4364 20.6163C15.4364 21.624 15.8183 22.5436 16.4424 23.2341H16.4416L19.2477 26.086L22.0539 23.2341L26.0217 19.2007L28.8278 16.3488L26.0217 13.4969Z" fill="#FAAE17"/>
<path d="M43.249 24.2202H41.3137L44.991 16.7436H46.9263L50.6036 24.2202H48.6679L48.0876 23.0392H43.8293L43.249 24.2202ZM31.2493 16.7436H38.7006C39.1878 16.7451 39.6547 16.9425 39.9992 17.2927C40.3437 17.6429 40.5378 18.1175 40.5392 18.6127C40.5379 19.1079 40.3438 19.5825 39.9993 19.9327C39.6548 20.2829 39.1878 20.4803 38.7006 20.4817C39.1878 20.4832 39.6547 20.6807 39.9992 21.0309C40.3437 21.3811 40.5378 21.8556 40.5392 22.3508C40.5379 22.846 40.3438 23.3207 39.9993 23.6709C39.6548 24.0212 39.1879 24.2187 38.7006 24.2202H31.2493V16.7436ZM31.2493 8.48029H33.185V11.6283H38.6039V8.48029H40.5392V15.9565H38.6039V12.8089H33.185V15.9565H31.2493V8.48029ZM48.0876 14.7763H43.8293L43.249 15.9565H41.3137L44.991 8.48029H46.9263L50.6036 15.9565H48.6679L48.0876 14.7763ZM44.4103 13.5997H47.5066L45.9585 10.4476L44.4103 13.5997ZM51.3777 8.48029H53.313V14.7763H58.7323V15.9565H51.3777V8.48029ZM61.4445 15.9565H59.508V12.8089L55.8295 8.48029H57.7656L60.4762 11.6283L63.1869 8.48029H65.1231L61.4445 12.8089V15.9565ZM65.6996 8.48029H67.6362V11.6283L71.8966 8.48029H74.0262L69.0303 12.2184L74.0262 15.9565H71.8966L67.6362 12.8089V15.9565H65.6996V8.48029ZM69.7642 24.2202H67.6354L63.3775 21.0722V24.2202H61.4417V16.7436H63.3775V19.8916L67.6358 16.7436H69.7642L64.7708 20.4817L69.7642 24.2202ZM51.3777 16.7436H53.313L58.7323 22.2525V16.7436H60.6676V24.2202H58.7323L53.313 18.7114V24.2202H51.3777V16.7436ZM33.185 17.9243V19.8916H37.6364C37.8928 19.8907 38.1384 19.7868 38.3197 19.6025C38.5009 19.4182 38.6031 19.1685 38.6039 18.9079C38.6031 18.6473 38.5009 18.3976 38.3197 18.2134C38.1384 18.0291 37.8928 17.9251 37.6364 17.9243H33.185ZM33.185 21.0722V23.0437H37.6364C37.8931 23.0426 38.1389 22.9383 38.3202 22.7536C38.5014 22.5689 38.6034 22.3188 38.6039 22.058C38.6033 21.7971 38.5013 21.5471 38.3201 21.3624C38.1388 21.1778 37.893 21.0734 37.6364 21.0722H33.185ZM47.507 21.8631L45.9589 18.7109L44.4103 21.8631H47.507Z" fill="#008060"/>
</g>
</g>
<defs>
<clipPath id="clip0_8505_924">
<rect width="66" height="29" fill="white" transform="translate(8 2)"/>
</clipPath>
<clipPath id="clip1_8505_924">
<rect width="66.6383" height="23.9516" fill="white" transform="translate(7.61694 4.52414)"/>
</clipPath>
</defs>
</svg>
