<svg width="77" height="33" viewBox="0 0 77 33" fill="none" xmlns="http://www.w3.org/2000/svg">
<rect width="77" height="33" rx="16.5" fill="white"/>
<g clip-path="url(#clip0_8505_914)">
<path d="M57.9578 23.1886H57.1463V23.724C56.8347 23.2943 56.4869 23.09 55.9145 23.09C54.8495 23.09 54.1611 23.8719 54.1611 25.0765C54.1611 26.2388 54.8277 26.9784 55.8711 26.9784C56.4362 26.9784 56.8275 26.7882 57.1246 26.3304V26.7812C57.1246 27.5631 56.813 27.9083 56.0884 27.9083C55.5378 27.9083 55.2552 27.7322 55.1683 27.3377H54.2988C54.4002 28.1126 54.9944 28.5 56.0667 28.5C57.4868 28.5 57.9578 27.8238 57.9578 26.5628V23.1886ZM56.0667 23.7662C56.726 23.7662 57.1173 24.2311 57.1173 25.0131C57.1173 25.8161 56.7116 26.3163 56.0667 26.3163C55.4291 26.3163 55.0234 25.8302 55.0234 25.0553C55.0234 24.2452 55.4074 23.7662 56.0667 23.7662ZM60.6966 23.0759C59.4721 23.0759 58.6896 23.8719 58.6896 25.0976C58.6896 26.3444 59.4721 27.1264 60.6966 27.1264C61.9066 27.1264 62.6674 26.3444 62.6674 25.0976C62.6674 23.8648 61.9066 23.0759 60.6966 23.0759ZM60.6821 23.7451C61.3704 23.7451 61.7907 24.2593 61.7907 25.0906C61.7907 25.95 61.3777 26.4712 60.6893 26.4712C59.9865 26.4712 59.5663 25.957 59.5663 25.0976C59.5663 24.2593 59.9938 23.7451 60.6821 23.7451ZM64.2976 21.7375H63.4282V27.0137H64.2976V21.7375ZM68.9782 21.7375H68.1232V23.6887C67.8479 23.2943 67.4277 23.09 66.8698 23.09C65.7757 23.09 65.0801 23.8648 65.0801 25.0976C65.0801 26.3374 65.7829 27.1193 66.8988 27.1193C67.4856 27.1193 67.9131 26.9009 68.1595 26.4924V27.0207H68.9782V21.7375ZM67.0292 23.7662C67.732 23.7662 68.145 24.2523 68.145 25.0906C68.145 25.9359 67.7392 26.429 67.0582 26.429C66.3771 26.429 65.9568 25.9077 65.9568 25.0765C65.9568 24.2593 66.3698 23.7662 67.0292 23.7662Z" fill="#CBA659"/>
<path d="M40.0831 12.2347H38.0834L35.1417 15.0735V9.5226H33.5549V19.3776H35.1417V16.8205L36.1126 15.9329L38.3515 19.3776H40.3367L37.2574 14.8481L40.0831 12.2347ZM41.6554 14.4325H43.1987C43.3291 13.5026 43.7856 13.1575 44.8362 13.1575C45.8651 13.1575 46.3505 13.5026 46.3505 14.2352C46.3505 14.4959 46.3215 14.665 46.2491 14.7495C46.0897 14.9538 45.7636 15.0242 44.6333 15.1651C43.1625 15.3483 41.3366 15.5244 41.3366 17.4193C41.3366 18.7366 42.293 19.5537 43.8218 19.5537C44.7927 19.5537 45.7346 19.3212 46.4012 18.6943C46.5172 19.3142 46.9736 19.5537 47.5967 19.5537C47.9083 19.5537 48.1402 19.5255 48.6546 19.3987V18.2928C48.4517 18.321 48.401 18.321 48.2851 18.321C47.988 18.321 47.9011 18.2082 47.9011 17.7926V14.1648C47.9011 12.6291 46.6186 12.0022 44.8797 12.0022C43.0828 12.0163 41.8438 12.6785 41.6554 14.4325ZM46.336 15.792V16.6374C46.336 17.0671 46.3505 17.539 46.01 17.8701C45.6404 18.2294 45.0101 18.4407 44.3435 18.4407C43.503 18.4407 43.0176 18.0533 43.0176 17.377C43.0176 16.4331 43.8725 16.2992 44.6333 16.1865C45.2057 16.0949 45.8071 16.0809 46.336 15.792ZM56.0088 14.3127C56.0088 12.6925 54.6104 12.0304 52.9294 12.0304C51.0456 12.0304 49.9153 12.8334 49.9153 14.193C49.9153 15.7286 51.2412 15.94 52.9294 16.3415C53.8569 16.5599 54.6829 16.6867 54.6829 17.4052C54.6829 18.0392 54.0525 18.4407 53.0961 18.4407C52.0817 18.4407 51.4006 18.0392 51.3137 17.0952H49.7559C49.8428 18.7295 50.9804 19.5889 53.0671 19.5889C55.0379 19.5889 56.2769 18.6732 56.2769 17.2361C56.2769 15.6582 54.7046 15.3412 53.4221 15.0524C52.2411 14.7918 51.5383 14.7354 51.5383 14.0169C51.5383 13.4886 52.0238 13.1856 52.8497 13.1856C53.7192 13.1856 54.3351 13.4463 54.451 14.3198L56.0088 14.3127ZM59.6533 12.2347H58.1245V22.0192H59.7402V18.4337C60.3271 19.2226 61.1386 19.5537 62.1385 19.5537C64.1238 19.5537 65.4062 18.0885 65.4062 15.8273C65.4062 13.5167 64.0948 12.0233 62.0515 12.0233C61.0951 12.0233 60.1677 12.3826 59.6533 13.1856V12.2347ZM61.7183 13.2984C62.9717 13.2984 63.7615 14.2846 63.7615 15.8343C63.7615 17.3559 62.9935 18.2998 61.7472 18.2998C60.4503 18.2998 59.675 17.3559 59.675 15.8061C59.6823 14.2423 60.4358 13.2984 61.7183 13.2984ZM69 9.48033H67.377V11.0301H69V9.48033ZM69 12.2347H67.377V19.3776H69V12.2347Z" fill="#1C1B17"/>
<path d="M12.6371 23.4773C13.7602 18.9478 12.427 18.7928 12.427 16.595C12.427 15.8624 13.0211 14.1084 13.1081 13.256C13.311 11.2977 12.811 11.819 14.2819 10.3678L14.3688 8.35316C15.1079 7.66282 15.4774 7.04292 16.3831 7.2613C16.9337 8.85331 15.8904 8.35316 15.7889 10.2129C16.4048 11.0089 16.8178 11.0864 17.2815 12.0867C17.8684 13.3546 17.4482 13.3405 18.5567 14.4042C20.187 14.5874 21.1723 14.5944 22.3389 13.4533C22.462 12.2346 21.7375 12.3402 22.4765 11.2202C22.9837 10.4524 23.4837 10.0368 24.4328 10.3467C24.7444 11.5442 23.346 11.7908 23.7807 13.1222C25.6573 13.3053 26.0921 10.7905 27.5267 10.6637C27.5267 13.3476 24.643 13.6998 24.5777 15.8835C24.5343 17.2501 25.7805 21.0118 27.0412 21.8149C28.1498 20.1594 29.3453 18.3561 29.483 16.3555C30.4466 2.70362 11.8691 0.216977 8.34054 12.1712C8.1594 12.784 8.05072 13.4039 8 14.0238V15.6088C8.31156 19.5395 10.804 22.9913 12.6371 23.4773Z" fill="#EF4635"/>
<path d="M18.0712 25.3089C23.0924 25.8866 22.5634 24.3791 21.5708 18.8211C21.1795 16.6303 20.7231 15.475 18.0495 15.6793C16.383 17.6024 17.2235 21.35 17.2815 22.9913C17.3249 24.2875 17.1003 24.372 18.0712 25.3089ZM23.8459 23.9705C24.6864 23.8719 24.8313 23.7028 25.5124 23.1745C25.6211 22.0544 24.8313 20.2511 23.5996 19.8918C23.0199 20.9767 23.1866 22.9068 23.8459 23.9705ZM15.5715 24.9003C15.5715 23.5338 15.7454 20.709 15.0209 19.7369C14.0572 20.0116 14.3543 20.8146 14.347 22.5264C14.3398 23.7803 14.1007 24.7736 15.5715 24.9003Z" fill="#EF4635"/>
</g>
<defs>
<clipPath id="clip0_8505_914">
<rect width="61" height="24" fill="white" transform="translate(8 4.5)"/>
</clipPath>
</defs>
</svg>
