<svg width="130" height="50" viewBox="0 0 130 50" fill="none" xmlns="http://www.w3.org/2000/svg">
<path d="M101.601 3.81455C104.414 5.80458 102.698 13.1471 102.149 15.8234C100.983 21.9994 99.0615 28.0381 96.797 33.871C96.4539 34.7631 98.5125 35.0376 98.8556 34.2141C101.463 27.695 103.591 20.9014 104.62 13.902C105.1 10.814 106.198 5.04974 103.11 2.85384C102.355 2.37348 100.571 3.12832 101.601 3.81455Z" fill="#FF6666"/>
<path d="M111.78 31.8118C107.868 35.2429 106.427 30.508 106.29 27.2142C106.084 27.42 105.947 27.6259 105.741 27.7631C108.349 26.9397 111.231 25.4986 112.466 22.9596C113.221 21.5185 113.152 19.803 111.505 19.1168C106.496 16.9895 100.938 23.7144 99.2221 27.5573C98.8104 28.4494 100.938 28.7238 101.281 27.9004C102.173 25.8417 103.477 23.9889 105.192 22.5479C106.29 21.6558 108.28 20.0088 109.859 20.2147C111.643 20.4206 110.751 22.342 110.064 23.2341C108.761 25.0182 106.702 25.979 104.643 26.5966C104.437 26.6652 104.094 26.871 104.094 27.1455C104.163 29.6159 104.712 32.8412 107.114 34.0764C109.447 35.3116 111.711 33.9391 113.495 32.4294C114.388 31.8118 112.398 31.2629 111.78 31.8118Z" fill="#FF6666"/>
<path d="M117.795 21.6561C120.814 18.8426 122.53 22.2051 125.481 22.8913C126.441 23.0972 127.608 23.0972 128.432 22.4796C129.255 21.9306 130.353 19.8719 129.324 19.0485C128.912 18.774 128.226 18.8426 127.814 19.0485C126.853 19.5974 126.03 21.0385 125.344 21.862C124.108 23.303 122.942 24.8127 121.707 26.2538C120.54 27.6262 119.373 28.93 118.138 30.1652C118.001 30.3025 114.982 32.7729 115.05 32.9787C115.805 33.7336 116.285 33.8022 116.491 33.2532C116.491 33.1846 116.56 33.116 116.56 33.0474C116.697 32.7729 116.834 32.567 117.04 32.2925C117.658 31.5377 118.413 31.1946 119.442 31.3318C121.363 31.5377 121.707 33.3905 123.216 34.1453C125.138 35.106 127.265 33.665 128.637 32.4298C129.461 31.7435 127.402 31.1946 126.853 31.7435C125.275 33.1846 124.589 32.9101 123.285 31.6063C122.805 31.1259 122.187 30.7142 121.569 30.4397C120.334 29.8908 118.893 29.7535 117.589 30.1652C116.629 30.4397 113.472 32.4984 114.639 33.8708C117.246 37.0961 127.677 20.9013 129.461 19.9406C128.981 19.9406 128.5 19.9406 127.951 19.9406C127.471 19.5975 127.814 20.764 127.334 21.2444C126.167 22.4796 124.177 20.3523 123.216 19.6661C120.609 17.8133 118.275 18.9799 116.148 20.9699C115.256 21.7247 117.246 22.2051 117.795 21.6561Z" fill="#FF6666"/>
<path d="M28.5181 0.314505C24.9498 -0.371715 20.9011 -0.0972271 18.362 2.7849C16.1661 5.25529 15.6858 9.0295 17.0582 12.0489C18.5679 15.4113 22.1362 17.5386 25.7732 17.5386C28.5867 17.5386 32.2237 16.0289 32.2237 12.7351C32.2923 8.48053 26.5967 6.01013 23.2342 5.18667C19.1169 4.22596 14.5878 4.63769 10.6764 6.216C2.02999 9.71572 -3.18528 19.8718 2.16724 28.3123C8.75495 38.7428 22.7538 36.89 31.3316 30.3709C32.0864 29.7534 30.0964 29.3416 29.5474 29.7534C21.3814 35.9293 7.79425 36.9587 3.12795 25.9105C-0.577643 17.1269 5.94145 8.34328 14.5878 6.35324C19.1855 5.25529 24.7439 5.94151 28.3122 9.30399C32.9099 13.6958 27.2829 18.1562 22.4794 15.4113C19.3914 13.6958 17.8131 10.1275 18.4993 6.76497C19.46 2.1673 23.6459 0.588993 27.9005 1.41246C28.9985 1.61832 29.8905 0.588993 28.5181 0.314505Z" fill="#FF6666"/>
<path d="M29.9593 20.0772C29.3417 22.822 27.2831 36.6151 33.7335 34.8995C39.9781 33.2526 43.2034 24.6748 44.1641 19.1165C44.3013 18.3616 42.174 18.293 42.0368 19.1165C41.1447 24.2631 38.7429 30.5077 34.008 33.2526C33.1846 33.7329 33.1159 34.0074 32.567 33.5271C31.8807 32.8409 31.6749 30.9881 31.5376 30.1646C30.9887 26.8021 31.3318 23.371 32.0866 20.0772C32.2238 19.3909 30.1652 19.2537 29.9593 20.0772Z" fill="#FF6666"/>
<path d="M49.79 27.42C52.5349 27.2142 55.966 26.528 57.7502 24.1948C58.7109 22.9596 58.8481 21.3127 57.6815 20.2147C55.2112 17.813 50.4762 19.1168 48.0745 20.8323C44.5061 23.3027 41.8985 29.5473 45.5354 33.1157C48.6921 36.2037 54.1132 35.3116 57.4071 32.9784C58.4364 32.2922 56.515 31.6746 55.8974 32.155C53.3584 33.9391 49.3097 34.9685 47.0451 32.2236C44.7806 29.5473 46.2903 25.0869 48.4176 22.8224C49.9273 21.1754 53.3584 19.1854 55.6229 20.6265C56.9267 21.4499 56.6522 23.0282 55.6915 24.0576C54.1132 25.7731 51.5056 26.1849 49.3097 26.3221C47.8686 26.3907 48.8293 27.4887 49.79 27.42Z" fill="#FF6666"/>
<path d="M66.7394 12.5984C65.2298 17.1274 58.3676 35.5867 68.1119 35.1064C69.3471 35.0378 69.4157 33.8712 68.1119 33.9398C61.5242 34.2829 67.7688 15.9608 68.7981 12.9415C69.0726 12.0494 66.9453 11.9121 66.7394 12.5984Z" fill="#FF6666"/>
<path d="M61.0441 20.4886C64.4752 19.7337 67.9063 20.0769 71.406 20.2827C72.7099 20.3513 72.6412 19.1848 71.406 19.1161C67.7005 18.8417 64.1321 18.5672 60.4951 19.322C59.1227 19.5965 60.0148 20.6945 61.0441 20.4886Z" fill="#FF6666"/>
<path d="M74.0824 19.7335C73.4648 23.3019 70.9944 33.4579 76.2097 34.7618C83.5522 36.5459 87.9441 24.6743 88.493 19.5277C87.8068 19.5277 87.1206 19.5277 86.3657 19.5277C85.5423 28.2427 85.2678 41.7612 76.8273 47.0451C74.4941 48.4862 69.4161 50.2017 67.9064 46.8392C66.6712 44.163 69.7592 41.8298 71.8179 40.8691C75.8666 38.9477 85.4737 38.1242 86.9833 43.8199C87.1892 44.5061 89.2479 44.3689 89.042 43.4768C87.4637 37.5753 77.6507 37.7125 73.1217 38.9477C70.4454 39.7026 67.0143 41.2809 65.9164 44.0944C65.0929 46.2903 66.2595 48.2803 68.2495 49.241C73.3276 51.6428 79.6408 47.9372 82.5915 43.8199C87.3265 37.0263 87.8068 27.4192 88.5617 19.5277C88.6303 18.7728 86.5716 18.7042 86.4344 19.5277C86.0913 22.9588 84.9933 26.2526 83.0033 29.1348C81.6308 31.1248 77.5135 35.7911 75.798 32.0855C74.151 28.6544 75.5921 23.1646 76.2097 19.6649C76.3469 19.0473 74.2196 18.9101 74.0824 19.7335Z" fill="#FF6666"/>
<path d="M94.67 33.3898C94.67 34.3505 93.9152 35.1053 92.6114 35.1053C91.3076 35.1053 90.6213 34.3505 90.6213 33.3898C90.6213 32.4291 91.3762 31.6742 92.6114 31.6742C93.9152 31.6742 94.67 32.4291 94.67 33.3898Z" fill="#FF6666"/>
</svg>
