<svg width="53" height="33" viewBox="0 0 53 33" fill="none" xmlns="http://www.w3.org/2000/svg">
<rect x="0.870361" width="51.4444" height="33" rx="16.5" fill="white"/>
<g clip-path="url(#clip0_8505_844)">
<path d="M22.4038 16.4993C22.4038 12.9012 24.0433 9.69848 26.5932 7.63396C24.7284 6.12579 22.3816 5.22223 19.8265 5.22223C13.7761 5.22223 8.87036 10.2709 8.87036 16.4993C8.87036 22.7278 13.7761 27.7778 19.8265 27.7778C22.3816 27.7778 24.7297 26.8742 26.5932 25.366C24.0433 23.3002 22.4038 20.0988 22.4038 16.4993Z" fill="#FE0000"/>
<path d="M33.3587 5.22223C30.8036 5.22223 28.4556 6.12579 26.592 7.63396C29.1419 9.69982 30.7815 12.9012 30.7815 16.4993C30.7815 20.0988 29.1419 23.3002 26.592 25.3647C28.4556 26.8729 30.8036 27.7764 33.3587 27.7764C39.4092 27.7764 44.3149 22.7264 44.3149 16.498C44.3149 10.2696 39.4092 5.22223 33.3587 5.22223Z" fill="#FE9A00"/>
<path d="M30.7813 16.4993C30.7813 12.9012 29.1417 9.69849 26.5918 7.63397C24.0419 9.69983 22.4023 12.9012 22.4023 16.4993C22.4023 20.0988 24.0419 23.3002 26.5918 25.3647C29.1417 23.3002 30.7813 20.0988 30.7813 16.4993Z" fill="#FE4F00"/>
</g>
<defs>
<clipPath id="clip0_8505_844">
<rect width="35.4444" height="22.5556" fill="white" transform="translate(8.87036 5.22223)"/>
</clipPath>
</defs>
</svg>
