<svg width="101" height="33" viewBox="0 0 101 33" fill="none" xmlns="http://www.w3.org/2000/svg">
<rect width="101" height="33" rx="16.5" fill="white"/>
<g clip-path="url(#clip0_8505_878)">
<path d="M23.4147 7.58375C22.4251 6.47513 20.6374 6 18.3496 6H11.7106C11.4835 5.99955 11.2639 6.07878 11.0915 6.22329C10.9191 6.3678 10.8054 6.568 10.7711 6.7875L8.00729 24.0241C7.9882 24.1444 8.00955 24.2676 8.06811 24.375C8.12668 24.4825 8.2193 24.5684 8.33208 24.62C8.40691 24.654 8.48844 24.6716 8.57097 24.6716H12.6689L13.6987 18.2535L13.6674 18.4548C13.7024 18.2363 13.8156 18.0371 13.9869 17.8927C14.1581 17.7483 14.3763 17.6681 14.6024 17.6664H16.5502C20.3761 17.6664 23.3726 16.1386 24.2477 11.719C24.2736 11.5878 24.296 11.4609 24.3157 11.3366C24.5751 9.703 24.3139 8.59175 23.4147 7.58463" fill="#003087"/>
<path d="M73.5913 15.7851C73.3407 17.4021 72.0845 17.4021 70.8695 17.4021H70.1778L70.6628 14.3834C70.6767 14.2952 70.7224 14.2148 70.7916 14.1567C70.8609 14.0986 70.9491 14.0666 71.0404 14.0666H71.3571C72.1847 14.0666 72.9659 14.0666 73.3685 14.5295C73.6101 14.806 73.6816 15.2173 73.5913 15.7851ZM73.0625 11.5659H68.4787C68.3265 11.5656 68.1791 11.6189 68.0635 11.7158C67.9479 11.8128 67.8718 11.9471 67.8489 12.0944L65.9967 23.6461C65.9883 23.6996 65.9916 23.7542 66.0067 23.8062C66.0217 23.8582 66.0481 23.9065 66.0839 23.9477C66.1197 23.9889 66.1642 24.022 66.2143 24.0449C66.2645 24.0677 66.319 24.0798 66.3743 24.0801H68.7257C68.832 24.0797 68.9346 24.0424 69.0153 23.9747C69.0959 23.9071 69.1493 23.8135 69.1659 23.7109L69.692 20.434C69.7153 20.2871 69.7914 20.1531 69.9067 20.0562C70.022 19.9593 70.169 19.9058 70.321 19.9055H71.7705C74.7902 19.9055 76.5323 18.4705 76.9877 15.6233C77.1935 14.379 76.9966 13.4008 76.4034 12.7165C75.7512 11.964 74.5961 11.565 73.0625 11.565" fill="#009CDE"/>
<path d="M40.9013 15.7851C40.6507 17.4021 39.3945 17.4021 38.1786 17.4021H37.4869L37.9728 14.3834C37.9867 14.2953 38.0322 14.215 38.1013 14.1569C38.1704 14.0989 38.2584 14.0668 38.3495 14.0666H38.6671C39.4938 14.0666 40.2749 14.0666 40.6785 14.5295C40.92 14.806 40.9916 15.2172 40.9013 15.7851ZM40.3716 11.565H35.7878C35.6358 11.5655 35.489 11.619 35.3737 11.7159C35.2584 11.8127 35.1823 11.9466 35.1588 12.0935L33.3067 23.6452C33.2941 23.7257 33.3083 23.808 33.3473 23.8799C33.3864 23.9517 33.4481 24.0094 33.5233 24.0442C33.5734 24.067 33.6279 24.0792 33.6834 24.0792H35.8719C36.1851 24.0792 36.4517 23.8552 36.5009 23.5507L37.002 20.434C37.0252 20.2872 37.1012 20.1533 37.2164 20.0564C37.3315 19.9596 37.4782 19.906 37.6301 19.9055H39.0796C42.1002 19.9055 43.8423 18.4696 44.2968 15.6224C44.5026 14.3781 44.3057 13.3999 43.7125 12.7156C43.0612 11.9631 41.9052 11.5641 40.3716 11.5641V11.565ZM51.0127 19.9317C50.7997 21.1646 49.8048 21.9924 48.5343 21.9924C47.899 21.9924 47.389 21.7911 47.0615 21.4096C46.7358 21.0316 46.6142 20.4935 46.717 19.8941C46.9139 18.6726 47.9267 17.8186 49.1776 17.8186C49.8003 17.8186 50.3049 18.0216 50.6396 18.4066C50.976 18.7934 51.1084 19.335 51.0127 19.9317ZM54.0709 15.7317H51.8761C51.7845 15.7314 51.6959 15.7633 51.6264 15.8216C51.5569 15.8799 51.5112 15.9608 51.4976 16.0494L51.4019 16.6531L51.2489 16.4344C50.7738 15.7562 49.7144 15.5296 48.6559 15.5296C46.2312 15.5296 44.1608 17.3356 43.7573 19.8687C43.5479 21.1331 43.8449 22.3406 44.5742 23.1832C45.2443 23.9576 46.1999 24.2805 47.3389 24.2805C49.293 24.2805 50.3765 23.0467 50.3765 23.0467L50.2781 23.6461C50.2656 23.7268 50.2801 23.8092 50.3195 23.8811C50.3588 23.953 50.4209 24.0105 50.4964 24.0451C50.5465 24.0679 50.6011 24.0801 50.6566 24.0801H52.6322C52.9453 24.0801 53.2128 23.8561 53.2621 23.5507L54.4485 16.1657C54.4608 16.0851 54.4462 16.0027 54.4069 15.9309C54.3676 15.859 54.3056 15.8014 54.2302 15.7667C54.18 15.7439 54.1253 15.7319 54.07 15.7317" fill="#003087"/>
<path d="M83.7036 19.9326C83.4907 21.1655 82.4957 21.9932 81.2261 21.9932C80.5899 21.9932 80.0799 21.792 79.7525 21.4105C79.4277 21.0325 79.3051 20.4944 79.408 19.895C79.6057 18.6735 80.6168 17.8195 81.8685 17.8195C82.4913 17.8195 82.9959 18.0225 83.3314 18.4075C83.6669 18.7942 83.7994 19.3359 83.7036 19.9326ZM86.7618 15.7326H84.567C84.4756 15.7325 84.3872 15.7645 84.3179 15.8228C84.2486 15.8811 84.203 15.9618 84.1895 16.0502L84.0928 16.654L83.9398 16.4352C83.4647 15.7571 82.4054 15.5305 81.3469 15.5305C78.923 15.5305 76.8517 17.3365 76.4482 19.8696C76.2388 21.134 76.5377 22.3415 77.266 23.1841C77.9362 23.9585 78.8917 24.2814 80.0307 24.2814C81.9857 24.2814 83.0693 23.0476 83.0693 23.0476L82.9708 23.647C82.9581 23.7274 82.9722 23.8098 83.0113 23.8817C83.0503 23.9536 83.1121 24.0112 83.1874 24.046C83.2375 24.0687 83.292 24.081 83.3475 24.081H85.3231C85.6363 24.081 85.9029 23.857 85.953 23.5516L87.1394 16.1666C87.1478 16.1132 87.1443 16.0586 87.1291 16.0066C87.1139 15.9546 87.0875 15.9064 87.0516 15.8653C87.0157 15.8242 86.9711 15.7911 86.921 15.7684C86.8708 15.7457 86.8162 15.7337 86.7609 15.7335" fill="#009CDE"/>
<path d="M65.7607 15.7335H63.5542C63.4502 15.7335 63.3478 15.7586 63.2561 15.8066C63.1643 15.8545 63.086 15.9237 63.0281 16.0083L59.9851 20.413L58.6949 16.1798C58.6556 16.0511 58.5751 15.9383 58.4652 15.8578C58.3554 15.7773 58.222 15.7334 58.0847 15.7326H55.9168C55.8556 15.7324 55.7953 15.7465 55.7408 15.7737C55.6864 15.801 55.6394 15.8406 55.6039 15.8893C55.5684 15.938 55.5454 15.9944 55.5368 16.0536C55.5282 16.1128 55.5342 16.1732 55.5544 16.2296L57.9836 23.2384L55.6993 26.4076C55.6594 26.4638 55.6358 26.5296 55.6312 26.5979C55.6265 26.6662 55.641 26.7345 55.673 26.7953C55.705 26.8562 55.7533 26.9074 55.8128 26.9435C55.8723 26.9795 55.9407 26.9991 56.0107 27H58.2153C58.3181 26.9998 58.4193 26.9752 58.5103 26.9285C58.6013 26.8817 58.6794 26.8141 58.7379 26.7314L66.0747 16.3224C66.1141 16.2662 66.1371 16.2005 66.1413 16.1325C66.1456 16.0645 66.1308 15.9966 66.0986 15.9361C66.0665 15.8757 66.0181 15.8249 65.9588 15.7892C65.8994 15.7535 65.8312 15.7343 65.7616 15.7335H65.7607Z" fill="#003087"/>
<path d="M89.3487 11.8835L87.4671 23.647C87.4587 23.7004 87.4622 23.7549 87.4773 23.8069C87.4924 23.8589 87.5188 23.9071 87.5546 23.9483C87.5904 23.9894 87.6348 24.0226 87.6848 24.0455C87.7349 24.0684 87.7894 24.0805 87.8446 24.081H89.7361C90.0493 24.081 90.3159 23.8561 90.3651 23.5516L92.2199 11.9999C92.2284 11.9465 92.225 11.892 92.21 11.84C92.195 11.788 92.1688 11.7398 92.133 11.6986C92.0973 11.6574 92.0529 11.6243 92.0029 11.6014C91.9529 11.5785 91.8984 11.5663 91.8432 11.5659H89.7254C89.634 11.5655 89.5456 11.5973 89.4763 11.6555C89.4069 11.7136 89.3613 11.7943 89.3478 11.8826" fill="#009CDE"/>
<path d="M23.4147 7.58375C22.4251 6.47513 20.6374 6 18.3496 6H11.7106C11.4835 5.99955 11.2639 6.07878 11.0915 6.22329C10.9191 6.3678 10.8054 6.568 10.7711 6.7875L8.00729 24.0241C7.9882 24.1444 8.00955 24.2676 8.06811 24.375C8.12668 24.4825 8.2193 24.5684 8.33208 24.62C8.40691 24.654 8.48844 24.6716 8.57097 24.6716H12.6689L13.6987 18.2535L13.6674 18.4548C13.7024 18.2363 13.8156 18.0371 13.9869 17.8927C14.1581 17.7483 14.3763 17.6681 14.6024 17.6664H16.5502C20.3761 17.6664 23.3726 16.1386 24.2477 11.719C24.2736 11.5878 24.296 11.4609 24.3157 11.3366C24.5751 9.703 24.3139 8.59175 23.4147 7.58463" fill="#003087"/>
<path d="M14.8044 11.3576C14.8357 11.1664 14.9353 10.9922 15.0855 10.8659C15.2357 10.7397 15.4268 10.6696 15.6249 10.6681H20.8305C21.446 10.6681 22.0214 10.7075 22.5466 10.7906C22.8338 10.8353 23.1183 10.8983 23.3975 10.977C23.7151 11.0645 24.022 11.1853 24.3146 11.3358C24.5749 9.70213 24.3128 8.59088 23.4145 7.58375C22.4231 6.476 20.6372 6 18.3494 6H11.7104C11.4831 5.99962 11.2632 6.07909 11.0907 6.22395C10.9183 6.36881 10.8048 6.56943 10.7709 6.78925L8.0062 24.0224C7.98691 24.1428 8.00815 24.2661 8.06673 24.3738C8.1253 24.4814 8.21804 24.5675 8.33099 24.6191C8.4059 24.6528 8.48742 24.6701 8.56988 24.6699H12.6687L13.6976 18.2518L14.8044 11.3576Z" fill="#003087"/>
<path d="M24.3156 11.3358C24.295 11.4635 24.2718 11.5904 24.2476 11.7173C23.3717 16.136 20.3761 17.6646 16.5502 17.6646H14.6015C14.3749 17.6643 14.1558 17.7437 13.9842 17.8883C13.8125 18.0329 13.6997 18.233 13.6665 18.4521L12.6688 24.6699L12.3852 26.433C12.3683 26.5385 12.387 26.6464 12.4383 26.7406C12.4896 26.8348 12.5708 26.9102 12.6697 26.9554C12.7351 26.9849 12.8062 27.0001 12.8782 27H16.3337C16.532 26.9994 16.7235 26.9296 16.8739 26.8032C17.0243 26.6768 17.1237 26.5021 17.1541 26.3105L17.1881 26.1373L17.8395 22.0808L17.8807 21.8568C17.9104 21.6647 18.0097 21.4894 18.1605 21.3629C18.3112 21.2364 18.5034 21.1669 18.702 21.1673H19.2192C22.5655 21.1673 25.1871 19.8311 25.953 15.9645C26.2715 14.3493 26.106 13 25.2613 12.0533C24.9932 11.7597 24.6723 11.5165 24.3147 11.3358H24.3156Z" fill="#009CDE"/>
<path d="M23.3983 10.977C23.2618 10.9372 23.124 10.9022 22.9849 10.872C22.8397 10.8408 22.6935 10.8139 22.5465 10.7915C21.9785 10.7049 21.4043 10.6634 20.8295 10.6672H15.6248C15.4261 10.6666 15.2337 10.7361 15.083 10.8629C14.9323 10.9897 14.8334 11.1653 14.8044 11.3576L13.6985 18.2526L13.6663 18.453C13.7013 18.2346 13.8145 18.0355 13.9858 17.8912C14.1571 17.747 14.3752 17.667 14.6013 17.6655H16.5491C20.3759 17.6655 23.3715 16.1369 24.2465 11.7172C24.2734 11.5869 24.2948 11.46 24.3145 11.3357C24.0228 11.1851 23.7157 11.0649 23.3983 10.977Z" fill="#012169"/>
</g>
<defs>
<clipPath id="clip0_8505_878">
<rect width="85" height="21" fill="white" transform="translate(8 6)"/>
</clipPath>
</defs>
</svg>
