<svg width="71" height="33" viewBox="0 0 71 33" fill="none" xmlns="http://www.w3.org/2000/svg">
<rect width="71" height="33" rx="16.5" fill="white"/>
<g clip-path="url(#clip0_8505_905)">
<path d="M58.2385 22.2843C58.2385 21.8402 57.9299 21.5516 57.5552 21.5516C57.1143 21.5516 56.8057 21.8402 56.7175 22.2843H58.2385ZM50.6994 22.2843C50.6994 21.8402 50.3908 21.5516 50.0161 21.5516C49.5972 21.5516 49.2666 21.8402 49.1784 22.2843H50.6994ZM40.5151 23.7942C41.0662 23.7942 41.5291 23.3501 41.5291 22.7062C41.5291 22.0845 41.0662 21.6182 40.5151 21.6182C39.964 21.6182 39.501 22.0623 39.501 22.7062C39.501 23.3501 39.964 23.7942 40.5151 23.7942ZM59.8036 20.9964H60.6413V22.3065H61.0602L61.8978 20.9964H62.8457L61.7656 22.6396V22.6618L62.978 24.4382H61.986L61.0822 23.0393H60.6413V24.4382H59.8036V20.9964ZM57.5772 20.9298C58.5471 20.9298 59.0982 21.6626 59.0982 22.5508C59.0982 22.6618 59.0762 22.7728 59.0542 22.8838H56.7175C56.7616 23.4834 57.2245 23.7942 57.7315 23.7942C58.0842 23.7942 58.4369 23.6388 58.7014 23.4167L59.0321 24.0385C58.6794 24.3493 58.1503 24.527 57.6654 24.527C56.5411 24.527 55.8357 23.7054 55.8357 22.7284C55.8578 21.6626 56.5632 20.9298 57.5772 20.9298ZM51.956 23.7276C52.3748 23.661 52.6614 23.3057 52.6614 22.0845V21.0187H55.1523V24.4604H54.3147V21.707H53.477V22.0845C53.477 23.5722 53.0802 24.4604 51.956 24.4826V23.7276ZM50.0381 20.9298C51.0081 20.9298 51.5592 21.6626 51.5592 22.5508C51.5592 22.6618 51.5371 22.7728 51.5371 22.8838H49.2004C49.2445 23.4834 49.7075 23.7942 50.2145 23.7942C50.5672 23.7942 50.9199 23.6388 51.1844 23.4167L51.5151 24.0385C51.1624 24.3493 50.6333 24.527 50.1483 24.527C49.0241 24.527 48.3187 23.7054 48.3187 22.7284C48.2966 21.6626 49.0241 20.9298 50.0381 20.9298ZM43.0722 20.9964H43.8878V23.7054H44.9459V20.9964H45.7616V23.7054H46.8197V20.9964H47.6353V24.4382H43.0942V20.9964H43.0722ZM40.5151 20.9298C41.5511 20.9298 42.3888 21.6848 42.3888 22.7284C42.3888 23.7942 41.5511 24.527 40.5151 24.527C39.479 24.527 38.6413 23.7942 38.6413 22.7284C38.6413 21.6626 39.479 20.9298 40.5151 20.9298ZM34.96 19.6642H35.8197V21.596H36.4369L37.5612 19.642H38.5091L37.1644 21.929V21.9512L38.5752 24.4382H37.6053L36.459 22.3509H35.8417V24.4382H34.982L34.96 19.6642Z" fill="#2D3540"/>
<path d="M39.8317 15.4675L38.9499 14.3795C38.8617 14.2684 38.9279 14.0908 39.0822 14.0908H40.9339C41.0221 13.8244 41.0662 13.5357 41.0662 13.247C41.0662 11.9148 40.0742 10.7601 38.7295 10.7601C37.3848 10.7601 36.3928 11.9148 36.3928 13.247C36.3928 14.5793 37.3848 15.7339 38.7295 15.7339C39.1263 15.7562 39.501 15.6451 39.8317 15.4675ZM19.0441 27.68C12.982 27.68 8.06616 22.7284 8.06616 16.6221C8.06616 10.5159 12.982 5.56424 19.0441 5.56424C25.1062 5.56424 30.0221 10.5159 30.0221 16.6221C30.0221 18.6872 29.4489 20.6412 28.479 22.3065C28.4569 22.3509 28.3688 22.3287 28.3467 22.2843C27.972 19.5753 26.3187 18.0654 23.9379 17.6213C23.7395 17.5991 23.6954 17.4659 23.9599 17.4215C24.6874 17.3549 25.7235 17.3771 26.2746 17.4659C26.2966 17.1995 26.3187 16.9108 26.3187 16.6221C26.3187 12.5809 23.0561 9.29461 19.0662 9.29461C15.0541 9.29461 11.8137 12.5809 11.8137 16.6221C11.8137 20.6634 15.0762 23.9496 19.0662 23.9496H19.3968C19.2866 23.3057 19.2425 22.6396 19.2425 21.9734C19.2646 21.5293 19.3527 21.4627 19.5511 21.818C20.5652 23.5722 21.998 25.1487 24.7976 25.7704C27.0902 26.2811 29.3828 26.8807 31.8517 30.0559C32.0722 30.3224 31.7415 30.611 31.477 30.389C28.964 28.1019 26.6714 27.3692 24.5772 27.3692C22.2405 27.3692 20.6533 27.68 19.0441 27.68ZM24.6213 23.0393C24.8858 23.0393 25.1724 23.1503 25.4149 23.3723C25.8998 23.7942 26.0541 24.2827 25.7896 24.6158C25.6353 24.7934 25.4149 24.9044 25.1283 24.9044C24.8638 24.9044 24.5772 24.8156 24.3788 24.638C23.9379 24.2605 23.8056 23.6166 24.0922 23.2613C24.2245 23.1059 24.4008 23.0393 24.6213 23.0393ZM27.0461 21.2185C27.465 21.3739 27.6193 22.0178 27.6413 22.2843C27.7074 22.7728 27.5531 22.9726 27.3988 22.9726C27.2445 22.9726 27.0241 22.7728 26.7816 22.3953C26.5391 22.0178 26.4509 21.5738 26.5832 21.3517C26.6493 21.1963 26.8257 21.1297 27.0461 21.2185ZM43.8217 17.2661C43.9098 17.3771 43.8437 17.5325 43.6894 17.5325H41.6834C41.5952 17.5325 41.5291 17.5103 41.485 17.4437L41.1543 17.0218C40.4489 17.4659 39.6333 17.7546 38.7515 17.7546C36.3046 17.7546 34.2986 15.7339 34.2986 13.2692C34.2986 10.7823 36.2826 8.78391 38.7515 8.78391C41.1984 8.78391 43.2044 10.8045 43.2044 13.2692C43.2044 14.1574 42.9399 15.0012 42.499 15.6895L43.8217 17.2661ZM62.471 8.98375C62.5812 8.98375 62.6694 9.07257 62.6914 9.20579V17.3327C62.6914 17.4881 62.6253 17.5547 62.471 17.5547H60.8397C60.6854 17.5547 60.6193 17.4881 60.6193 17.3327V9.20579C60.6193 9.05036 60.6854 8.98375 60.8397 8.98375H62.471ZM59.6934 8.98375C59.7595 8.98375 59.8477 9.00595 59.9139 9.07257C59.9579 9.11698 59.9579 9.20579 59.9579 9.27241L57.2465 17.4215C57.2024 17.5103 57.1363 17.5547 57.0481 17.5769H55.5712C55.483 17.5769 55.3948 17.5325 55.3728 17.4215L53.7856 12.6697L52.1984 17.4215C52.1543 17.5103 52.0882 17.5547 52 17.5769H50.5231C50.4349 17.5769 50.3467 17.5325 50.3247 17.4215L47.6133 9.27241C47.5912 9.20579 47.5912 9.13918 47.6573 9.07257C47.6794 9.00595 47.7676 8.98375 47.8337 8.98375H49.6634C49.7515 8.98375 49.8397 9.05036 49.8617 9.13918L51.3167 13.9576L52.9038 9.13918C52.9479 9.05036 53.0141 9.00595 53.1022 8.98375H54.4028C54.491 8.98375 54.5792 9.02816 54.6012 9.13918L56.1884 13.9576L57.6433 9.13918C57.6654 9.02816 57.7535 8.98375 57.8417 8.98375H59.6934ZM46.8638 9.20579V17.3327C46.8638 17.4881 46.7976 17.5547 46.6433 17.5547H45.0121C44.8577 17.5547 44.7916 17.4881 44.7916 17.3327V9.20579C44.7916 9.05036 44.8577 8.98375 45.0121 8.98375H46.6433C46.7976 8.98375 46.8638 9.07257 46.8638 9.20579Z" fill="#FF8C00"/>
</g>
<defs>
<clipPath id="clip0_8505_905">
<rect width="55" height="28" fill="white" transform="translate(8 2.5)"/>
</clipPath>
</defs>
</svg>
