<svg width="127" height="33" viewBox="0 0 127 33" fill="none" xmlns="http://www.w3.org/2000/svg">
<rect width="126.4" height="33" rx="16.5" fill="white"/>
<path d="M28.9766 5C22.5447 5 17.4285 10.1677 17.4285 16.5C17.4285 22.905 22.6178 28 28.9766 28C35.3354 28 40.5247 22.8323 40.5247 16.5C40.5978 10.1677 35.3354 5 28.9766 5ZM28.9766 20.7943C26.6377 20.7943 24.6643 18.8291 24.6643 16.5C24.6643 14.1709 26.6377 12.2057 28.9766 12.2057C31.3154 12.2057 33.2888 14.1709 33.2888 16.5C33.2888 18.8291 31.3885 20.7943 28.9766 20.7943Z" fill="#8B3FFD"/>
<path d="M17.4285 8.34821V25.0887H13.2624L8 8.34821H17.4285Z" fill="#8B3FFD"/>
<path d="M114.857 11.3323L112.298 17.5918C112.225 17.6646 112.225 17.8101 112.225 17.8829L112.152 18.0285L112.079 17.8829C112.079 17.8101 112.006 17.6646 112.006 17.5918L109.448 11.3323H106.159L110.471 22.0317L108.644 26.1076H111.933L117.999 11.3323H114.857Z" fill="black"/>
<path d="M90.5908 11.9146C90.006 11.4779 89.2752 11.1867 88.3981 11.114C86.9365 10.9684 85.548 11.4779 84.5978 12.4241V11.2596H81.6008V21.9589H84.5978V16.3545C84.5978 15.1171 84.8167 14.7532 85.0362 14.4621C85.4015 13.8798 86.0593 13.5887 86.8635 13.5887C87.6673 13.5887 88.398 13.9526 88.7639 14.5348C88.9828 14.9716 89.0558 15.5538 89.0558 15.845C89.0558 16.7912 89.0558 21.9589 89.0558 21.9589H92.0528V15.4811C92.0528 13.807 91.541 12.6425 90.5908 11.9146Z" fill="black"/>
<path d="M75.8998 11.4051C74.4383 10.8956 72.8303 10.9684 71.3683 11.6234C70.4181 12.0602 69.5414 12.788 69.0296 13.7342C68.5178 14.5348 68.2988 15.5538 68.2988 16.6456C68.2988 17.7374 68.5178 18.7563 69.0296 19.557C69.5414 20.3576 70.1992 21.0855 71.0759 21.5222C71.9531 21.9589 72.9763 22.25 73.9265 22.25C74.4383 22.25 74.9496 22.1772 75.4614 22.0317C75.8998 21.8861 76.3386 21.7405 76.777 21.5222C77.6542 21.0127 78.385 20.3576 78.8238 19.557C79.3351 18.7563 79.5546 17.7374 79.5546 16.6456C79.6275 14.2437 78.239 12.2057 75.8998 11.4051ZM76.777 16.7912C76.704 17.7374 76.4116 18.538 75.8268 19.0475C75.3885 19.4114 74.7307 19.6298 73.9265 19.7026C73.1227 19.7026 72.5379 19.4842 72.0261 19.0475C71.4418 18.538 71.1494 17.7374 71.0759 16.7912C71.0029 15.6994 71.4418 14.826 72.2455 14.2437C72.6839 13.9526 73.2687 13.7342 73.8535 13.7342C74.5113 13.7342 75.0231 13.9526 75.5344 14.2437C76.4116 14.7532 76.85 15.6994 76.777 16.7912Z" fill="black"/>
<path d="M64.8635 11.9145C64.2787 11.4778 63.5479 11.1867 62.6707 11.1139C62.5247 11.1139 62.3053 11.1139 62.1594 11.1139C60.9898 11.1139 59.9666 11.6234 59.0894 12.6424L58.9434 12.8607H58.651C58.4316 12.4968 58.1392 12.2057 57.8468 11.9873C57.262 11.5506 56.5313 11.2595 55.6541 11.1867C54.2655 11.0411 53.1692 11.4778 52.2191 12.4968V11.4051H49.2224V22.1044H52.2191V16.5V16.3544C52.2191 15.1899 52.3653 14.8987 52.5845 14.5348C52.95 13.9525 53.6077 13.5886 54.3385 13.6614C55.0697 13.6614 55.7275 14.0253 56.0929 14.6076C56.3853 15.0443 56.3853 15.5538 56.3853 16.0633V22.0316H59.3818V16.2816C59.3818 15.1899 59.5278 14.826 59.7472 14.462C60.1126 13.8797 60.7703 13.5886 61.5016 13.5886C62.2323 13.5886 62.8171 13.9525 63.1825 14.5348C63.4019 14.8987 63.4749 15.3354 63.4749 15.6266C63.4749 15.7721 63.4749 15.9177 63.4749 15.9905V21.9589H66.4714V15.4082C66.4714 14.826 66.3984 14.2436 66.252 13.7341C65.9601 13.0063 65.5212 12.3512 64.8635 11.9145Z" fill="black"/>
<path d="M103.308 18.7564C102.87 19.1931 101.846 19.9938 100.458 20.0665C99.2882 20.1393 98.4115 19.7754 97.7537 19.1204C97.4613 18.8292 97.2419 18.3925 97.0959 17.9558H105.355V17.883C105.428 17.4463 105.501 17.0824 105.501 16.6456C105.501 16.2817 105.428 15.7722 105.282 15.1172C104.916 13.8798 104.186 12.9336 103.235 12.2058C102.139 11.4051 101.116 11.1868 100.823 11.1868C98.7039 10.8229 96.2917 11.769 95.0492 13.7343C94.172 15.1172 94.2454 16.5001 94.2454 16.9368C94.2454 17.4463 94.3184 19.0475 95.634 20.5033C97.1689 22.1773 99.2882 22.2501 99.946 22.3229C102.87 22.3956 104.843 20.576 105.282 20.2121L103.308 18.7564ZM98.1921 14.2438C98.6305 13.9526 99.1423 13.7343 99.8001 13.7343C100.458 13.7343 100.97 13.9526 101.481 14.2438C101.92 14.6077 102.285 15.0444 102.504 15.5539H97.2419C97.3149 15.0444 97.6803 14.5349 98.1921 14.2438Z" fill="black"/>
</svg>
