<svg width="73" height="33" viewBox="0 0 73 33" fill="none" xmlns="http://www.w3.org/2000/svg">
<rect width="72.8703" height="33" rx="16.5" fill="white"/>
<path d="M32.6531 25.256H28.0122L30.9107 7.75611H35.5531L32.6531 25.256ZM24.107 7.75611L19.6847 19.7929L19.1613 17.2012L17.6005 9.33382C17.6005 9.33382 17.4112 7.75611 15.3993 7.75611H8.08312L8 8.05381C8 8.05381 10.2381 8.51171 12.8549 10.0532L16.8832 25.256H21.7165L29.1005 7.75611H24.107ZM55.5022 19.0676L57.9404 12.5195L59.3104 19.0676H55.5022ZM60.6065 25.256H64.8703L61.1514 7.75611H57.4202C55.6962 7.75611 55.2775 9.0618 55.2775 9.0618L48.3615 25.256H53.1979L54.1677 22.6567H60.0662L60.608 25.256H60.6065ZM48.7232 11.9664L49.3851 8.20796C49.3851 8.20796 47.341 7.44328 45.2137 7.44328C42.9094 7.44328 37.4403 8.43162 37.4403 13.2358C37.4403 17.7573 43.8591 17.8148 43.8591 20.1874C43.8591 22.56 38.1022 22.1368 36.2027 20.6407L35.5131 24.5699C35.5131 24.5699 37.585 25.5567 40.7513 25.5567C43.9176 25.5567 48.694 23.9458 48.694 19.5663C48.694 15.0175 42.2198 14.5944 42.2198 12.6147C42.2198 10.635 46.7376 10.8919 48.7232 11.9648V11.9664Z" fill="#005CA9"/>
</svg>
