<svg width="113" height="33" viewBox="0 0 113 33" fill="none" xmlns="http://www.w3.org/2000/svg">
<rect width="112.949" height="33" rx="16.5" fill="white"/>
<g clip-path="url(#clip0_8505_860)">
<path fill-rule="evenodd" clip-rule="evenodd" d="M8 5.5H104.949V27.5H8V5.5Z" fill="black"/>
<mask id="mask0_8505_860" style="mask-type:alpha" maskUnits="userSpaceOnUse" x="15" y="12" width="64" height="9">
<path d="M15.2078 12.8577H78.7792V20.2825H15.2078V12.8577Z" fill="white"/>
</mask>
<g mask="url(#mask0_8505_860)">
<path fill-rule="evenodd" clip-rule="evenodd" d="M76.7608 15.1587C76.3543 15.1587 75.8782 15.2259 75.4624 15.5197V15.2139H74.3139V20.227H75.4624V17.1984C75.4624 16.7517 75.8338 16.2155 76.562 16.2155C77.2008 16.2155 77.6303 16.6354 77.6303 17.2603V20.227H78.7792V17.1902C78.7792 15.9481 77.9574 15.1587 76.7608 15.1587ZM50.8481 15.1587C50.4417 15.1587 49.9655 15.2259 49.5498 15.5197V15.2139H48.4013V20.227H49.5498V17.1984C49.5498 16.7517 49.9212 16.2155 50.6494 16.2155C51.2885 16.2155 51.7177 16.6354 51.7177 17.2603V20.227H52.8665V17.1902C52.8665 15.9481 52.0447 15.1587 50.8481 15.1587ZM63.0842 15.1587C62.6778 15.1587 62.2016 15.2259 61.7859 15.5197V15.2139H60.6374V20.227H61.7859V17.1984C61.7859 16.7517 62.1573 16.2155 62.8855 16.2155C63.5242 16.2155 63.9538 16.6354 63.9538 17.2603V20.227H65.1023V17.1902C65.1023 15.9481 64.2808 15.1587 63.0842 15.1587ZM32.3961 17.16C31.8976 17.0455 31.5444 16.9232 31.5388 16.638C31.5321 16.2554 31.8782 16.1405 32.4789 16.1405L33.5147 16.1394V15.2143L32.4886 15.2158C31.5862 15.2158 30.4526 15.4045 30.4526 16.707C30.4638 17.2924 30.874 17.7447 31.6403 17.9777C31.8159 18.0311 31.9956 18.0721 32.169 18.112C32.7011 18.2343 33.1598 18.3596 33.1668 18.7436C33.1732 19.0915 32.6948 19.2992 32.2936 19.3059C31.5877 19.3059 31.1212 18.9122 30.9754 18.7697L30.2259 19.4461C30.2259 19.4461 30.8818 20.2825 32.3387 20.2825C33.2936 20.2825 34.271 19.6837 34.2531 18.7048C34.2355 17.7342 33.3048 17.3696 32.3961 17.16ZM42.4538 17.1951C42.4024 16.8718 42.2435 16.5746 41.9773 16.3837C41.6879 16.176 41.4079 16.1379 41.1033 16.1379C40.6797 16.1379 40.296 16.3326 40.029 16.6316C39.8164 16.8695 39.7206 17.1951 39.7206 17.1951H42.4538ZM41.2028 20.2825C39.6934 20.2777 38.5632 19.1844 38.5598 17.7223C38.5598 17.3994 38.6165 17.0754 38.7336 16.7726C38.9143 16.3092 39.2289 15.9101 39.6375 15.6263C40.0857 15.3161 40.636 15.1584 41.1849 15.1584C41.912 15.1591 42.4997 15.4026 42.9218 15.8415C43.2119 16.1435 43.408 16.5268 43.521 16.9217C43.6228 17.2771 43.6336 17.6324 43.6336 17.9979H39.6923L39.7154 18.1071C39.8601 18.7805 40.4559 19.2317 41.2032 19.2328C41.8498 19.231 42.2726 18.9368 42.4948 18.7209L43.2809 19.4305C42.8036 19.9592 42.0265 20.2806 41.2028 20.2825ZM28.3917 17.1951C28.3403 16.8718 28.1811 16.5746 27.9148 16.3837C27.6258 16.176 27.3454 16.1379 27.0408 16.1379C26.6172 16.1379 26.2335 16.3326 25.9669 16.6316C25.7543 16.8695 25.6581 17.1951 25.6581 17.1951H28.3914H28.3917ZM27.1407 20.2825C25.6309 20.2777 24.5007 19.1844 24.4977 17.7223C24.4977 17.3994 24.5537 17.0754 24.6711 16.7726C24.8518 16.3091 25.1667 15.91 25.5754 15.6263C26.0232 15.3161 26.5739 15.1584 27.1228 15.1584C27.8496 15.1591 28.4376 15.4026 28.8597 15.8415C29.1494 16.1435 29.3456 16.5268 29.4585 16.9217C29.5603 17.2771 29.5715 17.6324 29.5715 17.9979H25.6298L25.6529 18.1071C25.7976 18.7805 26.3938 19.2317 27.1411 19.2328C27.7877 19.231 28.2101 18.9368 28.4327 18.7209L29.2188 19.4305C28.7415 19.9592 27.964 20.2806 27.1407 20.2825ZM23.4283 13.558L22.115 18.3029L20.5392 13.558H19.3046L17.7284 18.3029L16.4152 13.558H15.2078L17.0535 20.227H18.2617L19.9214 15.2799L21.5822 20.227H22.7896L24.6353 13.558H23.4279H23.4283ZM46.6942 15.1696C46.3493 15.2132 45.9865 15.3251 45.664 15.5756V15.2139H44.5151V20.227H45.6636V17.1786C45.6636 17.0761 45.6811 16.9739 45.7218 16.8796C45.8202 16.651 46.0107 16.4109 46.2885 16.2953C46.4754 16.217 46.6528 16.1909 46.8061 16.1909C46.9724 16.1909 47.2152 16.2166 47.3863 16.3027V15.2311C47.3863 15.2311 47.0395 15.1256 46.6942 15.1696ZM66.6907 12.8577C66.209 12.8577 65.8189 13.2354 65.8189 13.7019C65.8189 13.9148 65.901 14.1091 66.036 14.2575H67.3448C67.4801 14.1091 67.5625 13.9148 67.5625 13.7019C67.5625 13.2358 67.1721 12.8577 66.6907 12.8577ZM58.4113 17.5888C58.4113 17.5888 58.5161 19.1512 56.752 19.1512C54.9882 19.1512 55.0938 17.5806 55.0938 17.5806V13.5576H53.8819V17.5437C53.8819 19.2105 55.0087 20.2825 56.7527 20.2825C58.4963 20.2825 59.6232 19.2108 59.6232 17.5519V13.5572H58.4113V17.5884V17.5888ZM72.2877 17.7208C72.2877 16.8393 71.6598 16.1995 70.7943 16.1995C69.9233 16.1995 69.2908 16.8393 69.2908 17.7208C69.2908 18.6023 69.9233 19.2422 70.7943 19.2422C71.6598 19.2422 72.2877 18.6023 72.2877 17.7208ZM73.4324 17.7208C73.4324 19.1814 72.2985 20.2825 70.7943 20.2825C69.2845 20.2825 68.1461 19.1814 68.1461 17.7208C68.1461 16.2599 69.2845 15.1587 70.7943 15.1587C72.2985 15.1587 73.4324 16.2599 73.4324 17.7208ZM66.1165 15.2139V20.227H67.265V15.2139H66.1165ZM37.8521 19.0863L38.1057 20.0025L37.9841 20.0625C37.7003 20.1945 37.4237 20.2825 36.9971 20.2825C36.0664 20.2825 35.488 19.7269 35.488 18.832L35.4865 16.1394H34.5297V15.2143H35.4865V13.8868L36.6346 13.5885V15.2143H37.8465V16.1391H36.6339L36.6346 18.6899C36.6346 19.0155 36.8591 19.2396 37.2063 19.2604C37.3991 19.2716 37.5903 19.2172 37.7593 19.1329L37.8525 19.0863H37.8521Z" fill="#FFDD00"/>
</g>
<path fill-rule="evenodd" clip-rule="evenodd" d="M81.822 20.2269L79.9285 13.558H80.4117L82.3052 20.2269H81.822Z" fill="white"/>
<mask id="mask1_8505_860" style="mask-type:alpha" maskUnits="userSpaceOnUse" x="82" y="13" width="16" height="8">
<path d="M82.5986 13.558H97.7358V20.4003H82.5986V13.558Z" fill="white"/>
</mask>
<g mask="url(#mask1_8505_860)">
<path fill-rule="evenodd" clip-rule="evenodd" d="M96.2509 13.558V17.6753C96.2517 17.6809 96.2815 18.2402 95.9086 18.6236C95.6663 18.8723 95.3027 18.9983 94.8273 18.9983C94.3522 18.9983 93.9883 18.8723 93.7467 18.6236C93.3738 18.2406 93.4036 17.6809 93.404 17.6757L93.4047 13.558H92.7921L91.9192 16.6641V17.6298C91.9192 18.4517 92.1944 19.1482 92.7153 19.6438C93.2351 20.1386 93.9656 20.4003 94.8277 20.4003C95.689 20.4003 96.4199 20.1386 96.9397 19.6438C97.4606 19.1482 97.7358 18.4517 97.7358 17.6298V13.5576H96.2509V13.558ZM91.9192 13.558L90.0443 20.2269H88.6844L87.2638 15.8061L85.8431 20.2269H84.4921L82.5986 13.558H84.0726L85.2315 17.7786L86.5859 13.5576H87.9499L89.3288 17.8096L90.4623 13.558H91.9192Z" fill="#FFDD00"/>
</g>
<path fill-rule="evenodd" clip-rule="evenodd" d="M83.1568 20.2269L81.2637 13.558H81.7469L83.64 20.2269H83.1568Z" fill="white"/>
<path fill-rule="evenodd" clip-rule="evenodd" d="M78.7797 20.227V17.1902V20.227ZM77.6309 17.2607V20.227V17.2607Z" fill="#FFDD00"/>
</g>
<defs>
<clipPath id="clip0_8505_860">
<rect x="8" y="5.5" width="96.9492" height="22" rx="11" fill="white"/>
</clipPath>
</defs>
</svg>
